<svg width="1895" height="1024" viewBox="0 0 1895 1024" fill="none" xmlns="http://www.w3.org/2000/svg">
<rect width="1895" height="1024" fill="#E5E5E5"/>
<rect x="455.5" y="0.5" width="1439" height="1023" fill="#EFEFEF"/>
<circle cx="1184" cy="391" r="125" fill="#61BEB5"/>
<circle cx="1184" cy="391" r="115" fill="#EFEFEF"/>
<path d="M1185.5 401L1325.36 614H1045.64L1185.5 401Z" fill="#EFEFEF"/>
<path d="M1181.79 417H1148.25V412.324L1165.97 392.637C1168.6 389.66 1170.4 387.246 1171.39 385.395C1172.39 383.52 1172.9 381.586 1172.9 379.594C1172.9 376.922 1172.09 374.73 1170.47 373.02C1168.86 371.309 1166.7 370.453 1164 370.453C1160.77 370.453 1158.25 371.379 1156.45 373.23C1154.66 375.059 1153.77 377.613 1153.77 380.895H1147.27C1147.27 376.184 1148.78 372.375 1151.8 369.469C1154.85 366.562 1158.92 365.109 1164 365.109C1168.76 365.109 1172.52 366.363 1175.29 368.871C1178.05 371.355 1179.44 374.672 1179.44 378.82C1179.44 383.859 1176.23 389.859 1169.8 396.82L1156.09 411.691H1181.79V417ZM1191.67 391.336L1194.27 365.812H1220.5V371.824H1199.79L1198.25 385.781C1200.75 384.305 1203.6 383.566 1206.79 383.566C1211.45 383.566 1215.16 385.113 1217.9 388.207C1220.64 391.277 1222.01 395.438 1222.01 400.688C1222.01 405.961 1220.58 410.121 1217.72 413.168C1214.89 416.191 1210.91 417.703 1205.8 417.703C1201.28 417.703 1197.59 416.449 1194.73 413.941C1191.87 411.434 1190.24 407.965 1189.84 403.535H1196C1196.39 406.465 1197.44 408.68 1199.12 410.18C1200.81 411.656 1203.04 412.395 1205.8 412.395C1208.83 412.395 1211.2 411.363 1212.91 409.301C1214.64 407.238 1215.51 404.391 1215.51 400.758C1215.51 397.336 1214.57 394.594 1212.7 392.531C1210.84 390.445 1208.37 389.402 1205.28 389.402C1202.44 389.402 1200.21 390.023 1198.6 391.266L1196.88 392.672L1191.67 391.336Z" fill="#878787"/>
<rect x="1259" y="595" width="176.974" height="50" fill="#E98510"/>
<circle cx="1435.97" cy="620" r="25" fill="#E98510"/>
<circle cx="1259" cy="620" r="25" fill="#E98510"/>
<path d="M1295 621.051V628H1293.56V610.938H1299.37C1301.14 610.938 1302.54 611.391 1303.57 612.297C1304.6 613.203 1305.11 614.449 1305.11 616.035C1305.11 617.637 1304.62 618.875 1303.62 619.75C1302.64 620.617 1301.21 621.051 1299.34 621.051H1295ZM1295 619.832H1299.37C1300.77 619.832 1301.84 619.5 1302.57 618.836C1303.3 618.172 1303.67 617.246 1303.67 616.059C1303.67 614.879 1303.3 613.941 1302.57 613.246C1301.84 612.543 1300.81 612.184 1299.46 612.168H1295V619.832ZM1320.74 623.219H1313L1311.24 628H1309.73L1316.18 610.938H1317.55L1324.01 628H1322.51L1320.74 623.219ZM1313.44 621.988H1320.28L1316.86 612.695L1313.44 621.988ZM1342.87 610.938V622.586C1342.87 623.734 1342.61 624.734 1342.11 625.586C1341.61 626.438 1340.9 627.094 1339.99 627.555C1339.08 628.008 1338.04 628.234 1336.86 628.234C1335.06 628.234 1333.62 627.746 1332.54 626.77C1331.46 625.785 1330.9 624.426 1330.86 622.691V610.938H1332.29V622.48C1332.29 623.918 1332.7 625.035 1333.52 625.832C1334.34 626.621 1335.46 627.016 1336.86 627.016C1338.27 627.016 1339.38 626.617 1340.19 625.82C1341.01 625.023 1341.42 623.914 1341.42 622.492V610.938H1342.87ZM1361.35 623.805C1361.35 622.859 1361.02 622.113 1360.35 621.566C1359.69 621.012 1358.47 620.488 1356.71 619.996C1354.94 619.496 1353.65 618.953 1352.84 618.367C1351.69 617.539 1351.11 616.453 1351.11 615.109C1351.11 613.805 1351.64 612.746 1352.71 611.934C1353.79 611.113 1355.17 610.703 1356.84 610.703C1357.97 610.703 1358.98 610.922 1359.87 611.359C1360.77 611.797 1361.47 612.406 1361.96 613.188C1362.45 613.969 1362.7 614.84 1362.7 615.801H1361.24C1361.24 614.637 1360.85 613.703 1360.05 613C1359.25 612.289 1358.18 611.934 1356.84 611.934C1355.53 611.934 1354.49 612.227 1353.72 612.812C1352.95 613.391 1352.56 614.148 1352.56 615.086C1352.56 615.953 1352.91 616.66 1353.6 617.207C1354.3 617.754 1355.41 618.238 1356.94 618.66C1358.47 619.074 1359.63 619.508 1360.42 619.961C1361.21 620.406 1361.81 620.941 1362.2 621.566C1362.6 622.191 1362.8 622.93 1362.8 623.781C1362.8 625.125 1362.26 626.203 1361.19 627.016C1360.11 627.828 1358.7 628.234 1356.94 628.234C1355.74 628.234 1354.63 628.02 1353.63 627.59C1352.63 627.16 1351.86 626.559 1351.34 625.785C1350.83 625.012 1350.57 624.125 1350.57 623.125H1352.01C1352.01 624.328 1352.46 625.277 1353.36 625.973C1354.26 626.668 1355.45 627.016 1356.94 627.016C1358.27 627.016 1359.34 626.723 1360.14 626.137C1360.95 625.551 1361.35 624.773 1361.35 623.805ZM1379.93 623.219H1372.18L1370.43 628H1368.91L1375.37 610.938H1376.74L1383.2 628H1381.7L1379.93 623.219ZM1372.63 621.988H1379.47L1376.05 612.695L1372.63 621.988ZM1396.89 620.898H1391.94V628H1390.48V610.938H1396.03C1397.85 610.938 1399.27 611.379 1400.29 612.262C1401.32 613.145 1401.83 614.379 1401.83 615.965C1401.83 617.059 1401.51 618.023 1400.87 618.859C1400.23 619.695 1399.37 620.273 1398.29 620.594L1402.55 627.848V628H1401.02L1396.89 620.898ZM1391.94 619.668H1396.36C1397.57 619.668 1398.54 619.324 1399.27 618.637C1400.01 617.949 1400.38 617.059 1400.38 615.965C1400.38 614.762 1399.99 613.828 1399.23 613.164C1398.46 612.5 1397.39 612.168 1396 612.168H1391.94V619.668Z" fill="white"/>
<rect x="936" y="595" width="176.974" height="50" fill="#61BEB5"/>
<circle cx="1112.97" cy="620" r="25" fill="#61BEB5"/>
<circle cx="936" cy="620" r="25" fill="#61BEB5"/>
<path d="M972.881 628H971.44V610.938H972.881V628ZM995.025 628H993.584L983.775 613.398V628H982.322V610.938H983.775L993.595 625.551V610.938H995.025V628ZM1005.92 628H1004.48V610.938H1005.92V628ZM1027.44 622.68C1027.25 624.477 1026.6 625.852 1025.51 626.805C1024.42 627.758 1022.97 628.234 1021.16 628.234C1019.89 628.234 1018.77 627.918 1017.8 627.285C1016.83 626.652 1016.08 625.758 1015.55 624.602C1015.02 623.438 1014.75 622.109 1014.74 620.617V618.402C1014.74 616.887 1015 615.543 1015.54 614.371C1016.07 613.199 1016.83 612.297 1017.82 611.664C1018.82 611.023 1019.97 610.703 1021.27 610.703C1023.09 610.703 1024.54 611.199 1025.59 612.191C1026.65 613.176 1027.27 614.539 1027.44 616.281H1025.99C1025.63 613.383 1024.05 611.934 1021.27 611.934C1019.72 611.934 1018.48 612.512 1017.56 613.668C1016.65 614.824 1016.19 616.422 1016.19 618.461V620.547C1016.19 622.516 1016.64 624.086 1017.53 625.258C1018.43 626.43 1019.64 627.016 1021.16 627.016C1022.67 627.016 1023.8 626.656 1024.57 625.938C1025.34 625.211 1025.81 624.125 1025.99 622.68H1027.44ZM1037.5 628H1036.06V610.938H1037.5V628ZM1056.37 623.219H1048.62L1046.86 628H1045.35L1051.81 610.938H1053.18L1059.64 628H1058.14L1056.37 623.219ZM1049.06 621.988H1055.91L1052.49 612.695L1049.06 621.988ZM1073.33 620.898H1068.37V628H1066.92V610.938H1072.46C1074.28 610.938 1075.7 611.379 1076.73 612.262C1077.75 613.145 1078.26 614.379 1078.26 615.965C1078.26 617.059 1077.94 618.023 1077.3 618.859C1076.66 619.695 1075.8 620.273 1074.72 620.594L1078.99 627.848V628H1077.45L1073.33 620.898ZM1068.37 619.668H1072.79C1074 619.668 1074.97 619.324 1075.71 618.637C1076.44 617.949 1076.81 617.059 1076.81 615.965C1076.81 614.762 1076.43 613.828 1075.66 613.164C1074.9 612.5 1073.82 612.168 1072.44 612.168H1068.37V619.668Z" fill="white"/>
<line x1="741.999" y1="168.5" x2="1641" y2="166.496" stroke="#878787"/>
<rect x="1334" y="124" width="125" height="42" rx="10" fill="#EFEFEF"/>
<path d="M1349.49 151V138.203H1353.1C1354.21 138.203 1355.2 138.449 1356.05 138.941C1356.91 139.434 1357.57 140.134 1358.03 141.042C1358.5 141.95 1358.73 142.993 1358.74 144.171V144.988C1358.74 146.195 1358.51 147.253 1358.04 148.161C1357.57 149.069 1356.91 149.767 1356.04 150.253C1355.18 150.739 1354.18 150.988 1353.03 151H1349.49ZM1351.17 139.592V149.62H1352.95C1354.25 149.62 1355.26 149.216 1355.98 148.407C1356.71 147.599 1357.07 146.447 1357.07 144.953V144.206C1357.07 142.753 1356.73 141.625 1356.04 140.822C1355.36 140.014 1354.4 139.604 1353.14 139.592H1351.17ZM1364.99 151.176C1363.7 151.176 1362.65 150.754 1361.84 149.91C1361.03 149.061 1360.63 147.927 1360.63 146.509V146.21C1360.63 145.267 1360.81 144.426 1361.17 143.688C1361.53 142.943 1362.03 142.363 1362.68 141.947C1363.33 141.525 1364.03 141.314 1364.79 141.314C1366.02 141.314 1366.98 141.722 1367.67 142.536C1368.36 143.351 1368.7 144.517 1368.7 146.034V146.711H1362.26C1362.28 147.648 1362.55 148.407 1363.07 148.987C1363.6 149.562 1364.27 149.849 1365.08 149.849C1365.65 149.849 1366.14 149.731 1366.54 149.497C1366.93 149.263 1367.28 148.952 1367.58 148.565L1368.58 149.339C1367.78 150.563 1366.58 151.176 1364.99 151.176ZM1364.79 142.65C1364.13 142.65 1363.58 142.891 1363.13 143.371C1362.69 143.846 1362.41 144.514 1362.31 145.375H1367.07V145.252C1367.03 144.426 1366.8 143.787 1366.4 143.336C1366.01 142.879 1365.47 142.65 1364.79 142.65ZM1376.12 148.478C1376.12 148.038 1375.96 147.698 1375.62 147.458C1375.3 147.212 1374.72 147.001 1373.89 146.825C1373.07 146.649 1372.42 146.438 1371.93 146.192C1371.45 145.946 1371.09 145.653 1370.86 145.313C1370.63 144.974 1370.52 144.569 1370.52 144.101C1370.52 143.321 1370.85 142.662 1371.5 142.123C1372.16 141.584 1373.01 141.314 1374.03 141.314C1375.11 141.314 1375.98 141.593 1376.65 142.149C1377.33 142.706 1377.66 143.418 1377.66 144.285H1376.03C1376.03 143.84 1375.84 143.456 1375.46 143.134C1375.08 142.812 1374.61 142.65 1374.03 142.65C1373.44 142.65 1372.98 142.779 1372.64 143.037C1372.31 143.295 1372.14 143.632 1372.14 144.048C1372.14 144.44 1372.3 144.736 1372.61 144.936C1372.92 145.135 1373.48 145.325 1374.29 145.507C1375.1 145.688 1375.76 145.905 1376.27 146.157C1376.77 146.409 1377.14 146.714 1377.38 147.071C1377.63 147.423 1377.75 147.854 1377.75 148.363C1377.75 149.213 1377.41 149.896 1376.73 150.411C1376.05 150.921 1375.17 151.176 1374.09 151.176C1373.32 151.176 1372.65 151.041 1372.06 150.771C1371.48 150.502 1371.02 150.127 1370.68 149.646C1370.36 149.16 1370.19 148.636 1370.19 148.073H1371.82C1371.85 148.618 1372.06 149.052 1372.47 149.374C1372.88 149.69 1373.42 149.849 1374.09 149.849C1374.7 149.849 1375.19 149.726 1375.56 149.479C1375.94 149.228 1376.12 148.894 1376.12 148.478ZM1383.68 149.849C1384.26 149.849 1384.77 149.673 1385.2 149.321C1385.64 148.97 1385.88 148.53 1385.92 148.003H1387.46C1387.43 148.548 1387.25 149.066 1386.9 149.559C1386.55 150.051 1386.09 150.443 1385.51 150.736C1384.94 151.029 1384.33 151.176 1383.68 151.176C1382.39 151.176 1381.36 150.745 1380.59 149.884C1379.83 149.017 1379.45 147.833 1379.45 146.333V146.061C1379.45 145.135 1379.62 144.312 1379.96 143.591C1380.3 142.87 1380.78 142.311 1381.42 141.912C1382.05 141.514 1382.81 141.314 1383.67 141.314C1384.74 141.314 1385.63 141.634 1386.33 142.272C1387.04 142.911 1387.42 143.74 1387.46 144.76H1385.92C1385.88 144.145 1385.64 143.641 1385.22 143.248C1384.81 142.85 1384.29 142.65 1383.67 142.65C1382.85 142.65 1382.21 142.949 1381.75 143.547C1381.3 144.139 1381.07 144.997 1381.07 146.122V146.43C1381.07 147.525 1381.3 148.369 1381.75 148.961C1382.2 149.553 1382.85 149.849 1383.68 149.849ZM1395.16 151C1395.07 150.812 1394.99 150.479 1394.93 149.998C1394.18 150.783 1393.28 151.176 1392.23 151.176C1391.29 151.176 1390.52 150.912 1389.92 150.385C1389.32 149.852 1389.02 149.178 1389.02 148.363C1389.02 147.373 1389.39 146.605 1390.14 146.061C1390.9 145.51 1391.96 145.234 1393.33 145.234H1394.91V144.487C1394.91 143.919 1394.74 143.468 1394.4 143.134C1394.06 142.794 1393.56 142.624 1392.89 142.624C1392.31 142.624 1391.83 142.771 1391.44 143.063C1391.04 143.356 1390.85 143.711 1390.85 144.127H1389.21C1389.21 143.652 1389.38 143.195 1389.71 142.756C1390.05 142.311 1390.51 141.959 1391.08 141.701C1391.66 141.443 1392.3 141.314 1392.99 141.314C1394.09 141.314 1394.95 141.59 1395.57 142.141C1396.19 142.686 1396.51 143.438 1396.53 144.399V148.776C1396.53 149.649 1396.64 150.344 1396.87 150.859V151H1395.16ZM1392.46 149.761C1392.97 149.761 1393.46 149.629 1393.91 149.365C1394.37 149.102 1394.7 148.759 1394.91 148.337V146.386H1393.63C1391.64 146.386 1390.64 146.969 1390.64 148.135C1390.64 148.645 1390.81 149.043 1391.15 149.33C1391.49 149.617 1391.93 149.761 1392.46 149.761ZM1400.62 141.49L1400.67 142.686C1401.4 141.771 1402.35 141.314 1403.52 141.314C1405.53 141.314 1406.54 142.448 1406.56 144.716V151H1404.94V144.707C1404.93 144.021 1404.77 143.515 1404.46 143.187C1404.16 142.858 1403.68 142.694 1403.03 142.694C1402.5 142.694 1402.04 142.835 1401.64 143.116C1401.24 143.397 1400.93 143.767 1400.71 144.224V151H1399.08V141.49H1400.62ZM1414.55 148.478C1414.55 148.038 1414.38 147.698 1414.05 147.458C1413.72 147.212 1413.14 147.001 1412.32 146.825C1411.5 146.649 1410.84 146.438 1410.36 146.192C1409.88 145.946 1409.52 145.653 1409.29 145.313C1409.06 144.974 1408.94 144.569 1408.94 144.101C1408.94 143.321 1409.27 142.662 1409.93 142.123C1410.59 141.584 1411.43 141.314 1412.46 141.314C1413.54 141.314 1414.41 141.593 1415.08 142.149C1415.75 142.706 1416.09 143.418 1416.09 144.285H1414.45C1414.45 143.84 1414.26 143.456 1413.88 143.134C1413.51 142.812 1413.03 142.65 1412.46 142.65C1411.87 142.65 1411.4 142.779 1411.07 143.037C1410.74 143.295 1410.57 143.632 1410.57 144.048C1410.57 144.44 1410.72 144.736 1411.04 144.936C1411.35 145.135 1411.91 145.325 1412.71 145.507C1413.53 145.688 1414.19 145.905 1414.69 146.157C1415.2 146.409 1415.57 146.714 1415.81 147.071C1416.05 147.423 1416.18 147.854 1416.18 148.363C1416.18 149.213 1415.84 149.896 1415.16 150.411C1414.48 150.921 1413.6 151.176 1412.51 151.176C1411.75 151.176 1411.08 151.041 1410.49 150.771C1409.9 150.502 1409.44 150.127 1409.11 149.646C1408.78 149.16 1408.62 148.636 1408.62 148.073H1410.24C1410.27 148.618 1410.49 149.052 1410.89 149.374C1411.3 149.69 1411.84 149.849 1412.51 149.849C1413.13 149.849 1413.62 149.726 1413.99 149.479C1414.36 149.228 1414.55 148.894 1414.55 148.478ZM1417.86 146.157C1417.86 145.226 1418.05 144.388 1418.41 143.644C1418.78 142.899 1419.29 142.325 1419.94 141.921C1420.59 141.517 1421.34 141.314 1422.18 141.314C1423.47 141.314 1424.52 141.763 1425.32 142.659C1426.12 143.556 1426.52 144.748 1426.52 146.236V146.351C1426.52 147.276 1426.34 148.108 1425.99 148.847C1425.63 149.579 1425.13 150.15 1424.46 150.561C1423.81 150.971 1423.05 151.176 1422.2 151.176C1420.91 151.176 1419.86 150.728 1419.06 149.831C1418.26 148.935 1417.86 147.748 1417.86 146.271V146.157ZM1419.5 146.351C1419.5 147.405 1419.74 148.252 1420.23 148.891C1420.72 149.529 1421.38 149.849 1422.2 149.849C1423.02 149.849 1423.68 149.526 1424.17 148.882C1424.65 148.231 1424.9 147.323 1424.9 146.157C1424.9 145.114 1424.65 144.271 1424.15 143.626C1423.66 142.976 1423 142.65 1422.18 142.65C1421.38 142.65 1420.73 142.97 1420.24 143.608C1419.75 144.247 1419.5 145.161 1419.5 146.351ZM1441.24 151H1432.86V149.831L1437.29 144.909C1437.94 144.165 1438.4 143.562 1438.64 143.099C1438.89 142.63 1439.02 142.146 1439.02 141.648C1439.02 140.98 1438.82 140.433 1438.41 140.005C1438.01 139.577 1437.47 139.363 1436.8 139.363C1435.99 139.363 1435.36 139.595 1434.91 140.058C1434.46 140.515 1434.24 141.153 1434.24 141.974H1432.61C1432.61 140.796 1432.99 139.844 1433.75 139.117C1434.51 138.391 1435.52 138.027 1436.8 138.027C1437.99 138.027 1438.93 138.341 1439.62 138.968C1440.31 139.589 1440.65 140.418 1440.65 141.455C1440.65 142.715 1439.85 144.215 1438.25 145.955L1434.82 149.673H1441.24V151Z" fill="#878787"/>
<rect x="1121" y="125" width="125" height="42" rx="10" fill="#EFEFEF"/>
<path d="M1134.49 153V140.203H1138.1C1139.21 140.203 1140.2 140.449 1141.05 140.941C1141.91 141.434 1142.57 142.134 1143.03 143.042C1143.5 143.95 1143.73 144.993 1143.74 146.171V146.988C1143.74 148.195 1143.51 149.253 1143.04 150.161C1142.57 151.069 1141.91 151.767 1141.04 152.253C1140.18 152.739 1139.18 152.988 1138.03 153H1134.49ZM1136.17 141.592V151.62H1137.95C1139.25 151.62 1140.26 151.216 1140.98 150.407C1141.71 149.599 1142.07 148.447 1142.07 146.953V146.206C1142.07 144.753 1141.73 143.625 1141.04 142.822C1140.36 142.014 1139.4 141.604 1138.14 141.592H1136.17ZM1149.99 153.176C1148.7 153.176 1147.65 152.754 1146.84 151.91C1146.03 151.061 1145.63 149.927 1145.63 148.509V148.21C1145.63 147.267 1145.81 146.426 1146.17 145.688C1146.53 144.943 1147.03 144.363 1147.68 143.947C1148.33 143.525 1149.03 143.314 1149.79 143.314C1151.02 143.314 1151.98 143.722 1152.67 144.536C1153.36 145.351 1153.7 146.517 1153.7 148.034V148.711H1147.26C1147.28 149.648 1147.55 150.407 1148.07 150.987C1148.6 151.562 1149.27 151.849 1150.08 151.849C1150.65 151.849 1151.14 151.731 1151.54 151.497C1151.93 151.263 1152.28 150.952 1152.58 150.565L1153.58 151.339C1152.78 152.563 1151.58 153.176 1149.99 153.176ZM1149.79 144.65C1149.13 144.65 1148.58 144.891 1148.13 145.371C1147.69 145.846 1147.41 146.514 1147.31 147.375H1152.07V147.252C1152.03 146.426 1151.8 145.787 1151.4 145.336C1151.01 144.879 1150.47 144.65 1149.79 144.65ZM1161.12 150.478C1161.12 150.038 1160.96 149.698 1160.62 149.458C1160.3 149.212 1159.72 149.001 1158.89 148.825C1158.07 148.649 1157.42 148.438 1156.93 148.192C1156.45 147.946 1156.09 147.653 1155.86 147.313C1155.63 146.974 1155.52 146.569 1155.52 146.101C1155.52 145.321 1155.85 144.662 1156.5 144.123C1157.16 143.584 1158.01 143.314 1159.03 143.314C1160.11 143.314 1160.98 143.593 1161.65 144.149C1162.33 144.706 1162.66 145.418 1162.66 146.285H1161.03C1161.03 145.84 1160.84 145.456 1160.46 145.134C1160.08 144.812 1159.61 144.65 1159.03 144.65C1158.44 144.65 1157.98 144.779 1157.64 145.037C1157.31 145.295 1157.14 145.632 1157.14 146.048C1157.14 146.44 1157.3 146.736 1157.61 146.936C1157.92 147.135 1158.48 147.325 1159.29 147.507C1160.1 147.688 1160.76 147.905 1161.27 148.157C1161.77 148.409 1162.14 148.714 1162.38 149.071C1162.63 149.423 1162.75 149.854 1162.75 150.363C1162.75 151.213 1162.41 151.896 1161.73 152.411C1161.05 152.921 1160.17 153.176 1159.09 153.176C1158.32 153.176 1157.65 153.041 1157.06 152.771C1156.48 152.502 1156.02 152.127 1155.68 151.646C1155.36 151.16 1155.19 150.636 1155.19 150.073H1156.82C1156.85 150.618 1157.06 151.052 1157.47 151.374C1157.88 151.69 1158.42 151.849 1159.09 151.849C1159.7 151.849 1160.19 151.726 1160.56 151.479C1160.94 151.228 1161.12 150.894 1161.12 150.478ZM1168.68 151.849C1169.26 151.849 1169.77 151.673 1170.2 151.321C1170.64 150.97 1170.88 150.53 1170.92 150.003H1172.46C1172.43 150.548 1172.25 151.066 1171.9 151.559C1171.55 152.051 1171.09 152.443 1170.51 152.736C1169.94 153.029 1169.33 153.176 1168.68 153.176C1167.39 153.176 1166.36 152.745 1165.59 151.884C1164.83 151.017 1164.45 149.833 1164.45 148.333V148.061C1164.45 147.135 1164.62 146.312 1164.96 145.591C1165.3 144.87 1165.78 144.311 1166.42 143.912C1167.05 143.514 1167.81 143.314 1168.67 143.314C1169.74 143.314 1170.63 143.634 1171.33 144.272C1172.04 144.911 1172.42 145.74 1172.46 146.76H1170.92C1170.88 146.145 1170.64 145.641 1170.22 145.248C1169.81 144.85 1169.29 144.65 1168.67 144.65C1167.85 144.65 1167.21 144.949 1166.75 145.547C1166.3 146.139 1166.07 146.997 1166.07 148.122V148.43C1166.07 149.525 1166.3 150.369 1166.75 150.961C1167.2 151.553 1167.85 151.849 1168.68 151.849ZM1180.16 153C1180.07 152.812 1179.99 152.479 1179.93 151.998C1179.18 152.783 1178.28 153.176 1177.23 153.176C1176.29 153.176 1175.52 152.912 1174.92 152.385C1174.32 151.852 1174.02 151.178 1174.02 150.363C1174.02 149.373 1174.39 148.605 1175.14 148.061C1175.9 147.51 1176.96 147.234 1178.33 147.234H1179.91V146.487C1179.91 145.919 1179.74 145.468 1179.4 145.134C1179.06 144.794 1178.56 144.624 1177.89 144.624C1177.31 144.624 1176.83 144.771 1176.44 145.063C1176.04 145.356 1175.85 145.711 1175.85 146.127H1174.21C1174.21 145.652 1174.38 145.195 1174.71 144.756C1175.05 144.311 1175.51 143.959 1176.08 143.701C1176.66 143.443 1177.3 143.314 1177.99 143.314C1179.09 143.314 1179.95 143.59 1180.57 144.141C1181.19 144.686 1181.51 145.438 1181.53 146.399V150.776C1181.53 151.649 1181.64 152.344 1181.87 152.859V153H1180.16ZM1177.46 151.761C1177.97 151.761 1178.46 151.629 1178.91 151.365C1179.37 151.102 1179.7 150.759 1179.91 150.337V148.386H1178.63C1176.64 148.386 1175.64 148.969 1175.64 150.135C1175.64 150.645 1175.81 151.043 1176.15 151.33C1176.49 151.617 1176.93 151.761 1177.46 151.761ZM1185.62 143.49L1185.67 144.686C1186.4 143.771 1187.35 143.314 1188.52 143.314C1190.53 143.314 1191.54 144.448 1191.56 146.716V153H1189.94V146.707C1189.93 146.021 1189.77 145.515 1189.46 145.187C1189.16 144.858 1188.68 144.694 1188.03 144.694C1187.5 144.694 1187.04 144.835 1186.64 145.116C1186.24 145.397 1185.93 145.767 1185.71 146.224V153H1184.08V143.49H1185.62ZM1199.55 150.478C1199.55 150.038 1199.38 149.698 1199.05 149.458C1198.72 149.212 1198.14 149.001 1197.32 148.825C1196.5 148.649 1195.84 148.438 1195.36 148.192C1194.88 147.946 1194.52 147.653 1194.29 147.313C1194.06 146.974 1193.94 146.569 1193.94 146.101C1193.94 145.321 1194.27 144.662 1194.93 144.123C1195.59 143.584 1196.43 143.314 1197.46 143.314C1198.54 143.314 1199.41 143.593 1200.08 144.149C1200.75 144.706 1201.09 145.418 1201.09 146.285H1199.45C1199.45 145.84 1199.26 145.456 1198.88 145.134C1198.51 144.812 1198.03 144.65 1197.46 144.65C1196.87 144.65 1196.4 144.779 1196.07 145.037C1195.74 145.295 1195.57 145.632 1195.57 146.048C1195.57 146.44 1195.72 146.736 1196.04 146.936C1196.35 147.135 1196.91 147.325 1197.71 147.507C1198.53 147.688 1199.19 147.905 1199.69 148.157C1200.2 148.409 1200.57 148.714 1200.81 149.071C1201.05 149.423 1201.18 149.854 1201.18 150.363C1201.18 151.213 1200.84 151.896 1200.16 152.411C1199.48 152.921 1198.6 153.176 1197.51 153.176C1196.75 153.176 1196.08 153.041 1195.49 152.771C1194.9 152.502 1194.44 152.127 1194.11 151.646C1193.78 151.16 1193.62 150.636 1193.62 150.073H1195.24C1195.27 150.618 1195.49 151.052 1195.89 151.374C1196.3 151.69 1196.84 151.849 1197.51 151.849C1198.13 151.849 1198.62 151.726 1198.99 151.479C1199.36 151.228 1199.55 150.894 1199.55 150.478ZM1202.86 148.157C1202.86 147.226 1203.05 146.388 1203.41 145.644C1203.78 144.899 1204.29 144.325 1204.94 143.921C1205.59 143.517 1206.34 143.314 1207.18 143.314C1208.47 143.314 1209.52 143.763 1210.32 144.659C1211.12 145.556 1211.52 146.748 1211.52 148.236V148.351C1211.52 149.276 1211.34 150.108 1210.99 150.847C1210.63 151.579 1210.13 152.15 1209.46 152.561C1208.81 152.971 1208.05 153.176 1207.2 153.176C1205.91 153.176 1204.86 152.728 1204.06 151.831C1203.26 150.935 1202.86 149.748 1202.86 148.271V148.157ZM1204.5 148.351C1204.5 149.405 1204.74 150.252 1205.23 150.891C1205.72 151.529 1206.38 151.849 1207.2 151.849C1208.02 151.849 1208.68 151.526 1209.17 150.882C1209.65 150.231 1209.9 149.323 1209.9 148.157C1209.9 147.114 1209.65 146.271 1209.15 145.626C1208.66 144.976 1208 144.65 1207.18 144.65C1206.38 144.65 1205.73 144.97 1205.24 145.608C1204.75 146.247 1204.5 147.161 1204.5 148.351ZM1223.2 153H1221.57V142.163L1218.29 143.367V141.891L1222.95 140.142H1223.2V153Z" fill="#878787"/>
<rect x="909" y="127" width="123" height="40" rx="9" fill="#EFEFEF" stroke="#5FE3D7" stroke-width="2"/>
<path d="M931.173 147.99V153H929.485V140.203H934.205C935.605 140.203 936.701 140.561 937.492 141.275C938.289 141.99 938.688 142.937 938.688 144.114C938.688 145.356 938.298 146.314 937.519 146.988C936.745 147.656 935.635 147.99 934.188 147.99H931.173ZM931.173 146.61H934.205C935.107 146.61 935.799 146.399 936.279 145.978C936.76 145.55 937 144.935 937 144.132C937 143.37 936.76 142.761 936.279 142.304C935.799 141.847 935.14 141.609 934.302 141.592H931.173V146.61ZM940.032 148.157C940.032 147.226 940.214 146.388 940.577 145.644C940.946 144.899 941.456 144.325 942.106 143.921C942.763 143.517 943.51 143.314 944.348 143.314C945.643 143.314 946.688 143.763 947.485 144.659C948.288 145.556 948.689 146.748 948.689 148.236V148.351C948.689 149.276 948.511 150.108 948.153 150.847C947.802 151.579 947.295 152.15 946.633 152.561C945.977 152.971 945.221 153.176 944.365 153.176C943.076 153.176 942.03 152.728 941.228 151.831C940.431 150.935 940.032 149.748 940.032 148.271V148.157ZM941.667 148.351C941.667 149.405 941.91 150.252 942.396 150.891C942.889 151.529 943.545 151.849 944.365 151.849C945.191 151.849 945.848 151.526 946.334 150.882C946.82 150.231 947.063 149.323 947.063 148.157C947.063 147.114 946.814 146.271 946.316 145.626C945.824 144.976 945.168 144.65 944.348 144.65C943.545 144.65 942.897 144.97 942.405 145.608C941.913 146.247 941.667 147.161 941.667 148.351ZM952.258 143.49L952.302 144.545C952.999 143.725 953.939 143.314 955.123 143.314C956.453 143.314 957.358 143.824 957.839 144.844C958.155 144.387 958.565 144.018 959.069 143.736C959.579 143.455 960.18 143.314 960.871 143.314C962.957 143.314 964.018 144.419 964.053 146.628V153H962.427V146.725C962.427 146.045 962.271 145.538 961.961 145.204C961.65 144.864 961.129 144.694 960.396 144.694C959.793 144.694 959.292 144.876 958.894 145.239C958.495 145.597 958.264 146.08 958.199 146.689V153H956.564V146.769C956.564 145.386 955.888 144.694 954.534 144.694C953.468 144.694 952.738 145.148 952.346 146.057V153H950.72V143.49H952.258ZM966.083 148.157C966.083 147.226 966.265 146.388 966.628 145.644C966.997 144.899 967.507 144.325 968.157 143.921C968.813 143.517 969.561 143.314 970.398 143.314C971.693 143.314 972.739 143.763 973.536 144.659C974.339 145.556 974.74 146.748 974.74 148.236V148.351C974.74 149.276 974.562 150.108 974.204 150.847C973.853 151.579 973.346 152.15 972.684 152.561C972.027 152.971 971.271 153.176 970.416 153.176C969.127 153.176 968.081 152.728 967.278 151.831C966.481 150.935 966.083 149.748 966.083 148.271V148.157ZM967.718 148.351C967.718 149.405 967.961 150.252 968.447 150.891C968.939 151.529 969.596 151.849 970.416 151.849C971.242 151.849 971.898 151.526 972.385 150.882C972.871 150.231 973.114 149.323 973.114 148.157C973.114 147.114 972.865 146.271 972.367 145.626C971.875 144.976 971.219 144.65 970.398 144.65C969.596 144.65 968.948 144.97 968.456 145.608C967.964 146.247 967.718 147.161 967.718 148.351ZM976.384 148.166C976.384 146.707 976.729 145.535 977.421 144.65C978.112 143.76 979.018 143.314 980.137 143.314C981.25 143.314 982.132 143.695 982.782 144.457V139.5H984.408V153H982.914L982.835 151.98C982.185 152.777 981.279 153.176 980.119 153.176C979.018 153.176 978.118 152.725 977.421 151.822C976.729 150.92 976.384 149.742 976.384 148.289V148.166ZM978.01 148.351C978.01 149.429 978.232 150.272 978.678 150.882C979.123 151.491 979.738 151.796 980.523 151.796C981.555 151.796 982.308 151.333 982.782 150.407V146.039C982.296 145.143 981.549 144.694 980.541 144.694C979.744 144.694 979.123 145.002 978.678 145.617C978.232 146.232 978.01 147.144 978.01 148.351ZM986.509 148.157C986.509 147.226 986.69 146.388 987.054 145.644C987.423 144.899 987.933 144.325 988.583 143.921C989.239 143.517 989.986 143.314 990.824 143.314C992.119 143.314 993.165 143.763 993.962 144.659C994.765 145.556 995.166 146.748 995.166 148.236V148.351C995.166 149.276 994.987 150.108 994.63 150.847C994.278 151.579 993.771 152.15 993.109 152.561C992.453 152.971 991.697 153.176 990.842 153.176C989.553 153.176 988.507 152.728 987.704 151.831C986.907 150.935 986.509 149.748 986.509 148.271V148.157ZM988.144 148.351C988.144 149.405 988.387 150.252 988.873 150.891C989.365 151.529 990.021 151.849 990.842 151.849C991.668 151.849 992.324 151.526 992.811 150.882C993.297 150.231 993.54 149.323 993.54 148.157C993.54 147.114 993.291 146.271 992.793 145.626C992.301 144.976 991.645 144.65 990.824 144.65C990.021 144.65 989.374 144.97 988.882 145.608C988.39 146.247 988.144 147.161 988.144 148.351ZM1001.8 144.949C1001.56 144.908 1001.29 144.888 1001 144.888C999.936 144.888 999.212 145.342 998.831 146.25V153H997.205V143.49H998.787L998.813 144.589C999.347 143.739 1000.1 143.314 1001.08 143.314C1001.4 143.314 1001.64 143.355 1001.8 143.438V144.949ZM1002.7 148.157C1002.7 147.226 1002.88 146.388 1003.24 145.644C1003.61 144.899 1004.12 144.325 1004.77 143.921C1005.43 143.517 1006.18 143.314 1007.01 143.314C1008.31 143.314 1009.35 143.763 1010.15 144.659C1010.95 145.556 1011.36 146.748 1011.36 148.236V148.351C1011.36 149.276 1011.18 150.108 1010.82 150.847C1010.47 151.579 1009.96 152.15 1009.3 152.561C1008.64 152.971 1007.89 153.176 1007.03 153.176C1005.74 153.176 1004.7 152.728 1003.89 151.831C1003.1 150.935 1002.7 149.748 1002.7 148.271V148.157ZM1004.33 148.351C1004.33 149.405 1004.58 150.252 1005.06 150.891C1005.55 151.529 1006.21 151.849 1007.03 151.849C1007.86 151.849 1008.51 151.526 1009 150.882C1009.49 150.231 1009.73 149.323 1009.73 148.157C1009.73 147.114 1009.48 146.271 1008.98 145.626C1008.49 144.976 1007.83 144.65 1007.01 144.65C1006.21 144.65 1005.56 144.97 1005.07 145.608C1004.58 146.247 1004.33 147.161 1004.33 148.351Z" fill="#61BEB5"/>
<rect x="455.5" y="0.5" width="1439" height="1023" stroke="black"/>
<rect width="455" height="1024" fill="#F9F9F9"/>
<path d="M106.936 104.207V112H104.311V92.0938H111.652C113.831 92.0938 115.535 92.6497 116.766 93.7617C118.005 94.8737 118.625 96.3457 118.625 98.1777C118.625 100.11 118.019 101.6 116.807 102.648C115.604 103.688 113.876 104.207 111.625 104.207H106.936ZM106.936 102.061H111.652C113.056 102.061 114.132 101.732 114.879 101.076C115.626 100.411 116 99.4538 116 98.2051C116 97.0202 115.626 96.0723 114.879 95.3613C114.132 94.6504 113.106 94.2812 111.803 94.2539H106.936V102.061ZM128.729 99.4766C128.346 99.4128 127.931 99.3809 127.484 99.3809C125.826 99.3809 124.7 100.087 124.107 101.5V112H121.578V97.207H124.039L124.08 98.916C124.91 97.5944 126.085 96.9336 127.607 96.9336C128.1 96.9336 128.473 96.9974 128.729 97.125V99.4766ZM136.932 112.273C134.926 112.273 133.295 111.617 132.037 110.305C130.779 108.983 130.15 107.219 130.15 105.014V104.549C130.15 103.081 130.428 101.773 130.984 100.625C131.549 99.4674 132.333 98.5651 133.336 97.918C134.348 97.2617 135.441 96.9336 136.617 96.9336C138.54 96.9336 140.035 97.5671 141.102 98.834C142.168 100.101 142.701 101.915 142.701 104.275V105.328H132.68C132.716 106.786 133.14 107.967 133.951 108.869C134.771 109.762 135.811 110.209 137.068 110.209C137.962 110.209 138.718 110.027 139.338 109.662C139.958 109.298 140.5 108.814 140.965 108.213L142.51 109.416C141.27 111.321 139.411 112.273 136.932 112.273ZM136.617 99.0117C135.596 99.0117 134.74 99.3854 134.047 100.133C133.354 100.871 132.926 101.91 132.762 103.25H140.172V103.059C140.099 101.773 139.753 100.78 139.133 100.078C138.513 99.3672 137.674 99.0117 136.617 99.0117ZM145.025 104.48C145.025 102.211 145.563 100.388 146.639 99.0117C147.714 97.6263 149.122 96.9336 150.863 96.9336C152.595 96.9336 153.967 97.526 154.979 98.7109V91H157.508V112H155.184L155.061 110.414C154.049 111.654 152.641 112.273 150.836 112.273C149.122 112.273 147.723 111.572 146.639 110.168C145.563 108.764 145.025 106.932 145.025 104.672V104.48ZM147.555 104.768C147.555 106.445 147.901 107.757 148.594 108.705C149.286 109.653 150.243 110.127 151.465 110.127C153.069 110.127 154.24 109.407 154.979 107.967V101.172C154.222 99.7773 153.06 99.0801 151.492 99.0801C150.253 99.0801 149.286 99.5586 148.594 100.516C147.901 101.473 147.555 102.89 147.555 104.768ZM167.584 112.273C165.579 112.273 163.947 111.617 162.689 110.305C161.432 108.983 160.803 107.219 160.803 105.014V104.549C160.803 103.081 161.081 101.773 161.637 100.625C162.202 99.4674 162.986 98.5651 163.988 97.918C165 97.2617 166.094 96.9336 167.27 96.9336C169.193 96.9336 170.688 97.5671 171.754 98.834C172.82 100.101 173.354 101.915 173.354 104.275V105.328H163.332C163.368 106.786 163.792 107.967 164.604 108.869C165.424 109.762 166.463 110.209 167.721 110.209C168.614 110.209 169.37 110.027 169.99 109.662C170.61 109.298 171.152 108.814 171.617 108.213L173.162 109.416C171.923 111.321 170.063 112.273 167.584 112.273ZM167.27 99.0117C166.249 99.0117 165.392 99.3854 164.699 100.133C164.007 100.871 163.578 101.91 163.414 103.25H170.824V103.059C170.751 101.773 170.405 100.78 169.785 100.078C169.165 99.3672 168.327 99.0117 167.27 99.0117ZM179.725 93.625V97.207H182.486V99.1621H179.725V108.336C179.725 108.928 179.848 109.375 180.094 109.676C180.34 109.967 180.759 110.113 181.352 110.113C181.643 110.113 182.044 110.059 182.555 109.949V112C181.889 112.182 181.242 112.273 180.613 112.273C179.483 112.273 178.631 111.932 178.057 111.248C177.482 110.564 177.195 109.594 177.195 108.336V99.1621H174.502V97.207H177.195V93.625H179.725ZM191.592 112.273C189.587 112.273 187.955 111.617 186.697 110.305C185.439 108.983 184.811 107.219 184.811 105.014V104.549C184.811 103.081 185.089 101.773 185.645 100.625C186.21 99.4674 186.993 98.5651 187.996 97.918C189.008 97.2617 190.102 96.9336 191.277 96.9336C193.201 96.9336 194.695 97.5671 195.762 98.834C196.828 100.101 197.361 101.915 197.361 104.275V105.328H187.34C187.376 106.786 187.8 107.967 188.611 108.869C189.432 109.762 190.471 110.209 191.729 110.209C192.622 110.209 193.378 110.027 193.998 109.662C194.618 109.298 195.16 108.814 195.625 108.213L197.17 109.416C195.93 111.321 194.071 112.273 191.592 112.273ZM191.277 99.0117C190.257 99.0117 189.4 99.3854 188.707 100.133C188.014 100.871 187.586 101.91 187.422 103.25H194.832V103.059C194.759 101.773 194.413 100.78 193.793 100.078C193.173 99.3672 192.335 99.0117 191.277 99.0117ZM207.451 99.4766C207.068 99.4128 206.654 99.3809 206.207 99.3809C204.548 99.3809 203.423 100.087 202.83 101.5V112H200.301V97.207H202.762L202.803 98.916C203.632 97.5944 204.808 96.9336 206.33 96.9336C206.822 96.9336 207.196 96.9974 207.451 97.125V99.4766ZM212.168 97.207L212.236 98.8477C213.321 97.5716 214.784 96.9336 216.625 96.9336C218.694 96.9336 220.102 97.7266 220.85 99.3125C221.342 98.6016 221.98 98.0273 222.764 97.5898C223.557 97.1523 224.491 96.9336 225.566 96.9336C228.811 96.9336 230.461 98.6517 230.516 102.088V112H227.986V102.238C227.986 101.181 227.745 100.393 227.262 99.873C226.779 99.3444 225.967 99.0801 224.828 99.0801C223.889 99.0801 223.11 99.3626 222.49 99.9277C221.87 100.484 221.51 101.236 221.41 102.184V112H218.867V102.307C218.867 100.156 217.814 99.0801 215.709 99.0801C214.05 99.0801 212.915 99.7865 212.305 101.199V112H209.775V97.207H212.168ZM237.092 112H234.562V97.207H237.092V112ZM234.357 93.2832C234.357 92.873 234.48 92.5267 234.727 92.2441C234.982 91.9616 235.355 91.8203 235.848 91.8203C236.34 91.8203 236.714 91.9616 236.969 92.2441C237.224 92.5267 237.352 92.873 237.352 93.2832C237.352 93.6934 237.224 94.0352 236.969 94.3086C236.714 94.582 236.34 94.7188 235.848 94.7188C235.355 94.7188 234.982 94.582 234.727 94.3086C234.48 94.0352 234.357 93.6934 234.357 93.2832ZM243.545 97.207L243.627 99.0664C244.757 97.6445 246.234 96.9336 248.057 96.9336C251.183 96.9336 252.76 98.6973 252.787 102.225V112H250.258V102.211C250.249 101.145 250.003 100.356 249.52 99.8457C249.046 99.3353 248.303 99.0801 247.291 99.0801C246.471 99.0801 245.751 99.2988 245.131 99.7363C244.511 100.174 244.028 100.748 243.682 101.459V112H241.152V97.207H243.545ZM265.734 112C265.589 111.708 265.47 111.189 265.379 110.441C264.203 111.663 262.799 112.273 261.168 112.273C259.71 112.273 258.511 111.863 257.572 111.043C256.643 110.214 256.178 109.165 256.178 107.898C256.178 106.358 256.761 105.164 257.928 104.316C259.104 103.46 260.753 103.031 262.877 103.031H265.338V101.869C265.338 100.985 265.074 100.283 264.545 99.7637C264.016 99.235 263.237 98.9707 262.207 98.9707C261.305 98.9707 260.548 99.1986 259.938 99.6543C259.327 100.11 259.021 100.661 259.021 101.309H256.479C256.479 100.57 256.738 99.8594 257.258 99.1758C257.786 98.4831 258.497 97.9362 259.391 97.5352C260.293 97.1341 261.282 96.9336 262.357 96.9336C264.062 96.9336 265.397 97.362 266.363 98.2188C267.329 99.0664 267.831 100.238 267.867 101.732V108.541C267.867 109.899 268.04 110.979 268.387 111.781V112H265.734ZM261.537 110.072C262.33 110.072 263.082 109.867 263.793 109.457C264.504 109.047 265.019 108.514 265.338 107.857V104.822H263.355C260.257 104.822 258.707 105.729 258.707 107.543C258.707 108.336 258.971 108.956 259.5 109.402C260.029 109.849 260.708 110.072 261.537 110.072ZM271.217 104.48C271.217 102.211 271.755 100.388 272.83 99.0117C273.906 97.6263 275.314 96.9336 277.055 96.9336C278.786 96.9336 280.158 97.526 281.17 98.7109V91H283.699V112H281.375L281.252 110.414C280.24 111.654 278.832 112.273 277.027 112.273C275.314 112.273 273.915 111.572 272.83 110.168C271.755 108.764 271.217 106.932 271.217 104.672V104.48ZM273.746 104.768C273.746 106.445 274.092 107.757 274.785 108.705C275.478 109.653 276.435 110.127 277.656 110.127C279.26 110.127 280.432 109.407 281.17 107.967V101.172C280.413 99.7773 279.251 99.0801 277.684 99.0801C276.444 99.0801 275.478 99.5586 274.785 100.516C274.092 101.473 273.746 102.89 273.746 104.768ZM286.967 104.467C286.967 103.018 287.249 101.714 287.814 100.557C288.389 99.3991 289.182 98.5059 290.193 97.877C291.214 97.248 292.376 96.9336 293.68 96.9336C295.694 96.9336 297.321 97.6309 298.561 99.0254C299.809 100.42 300.434 102.275 300.434 104.59V104.768C300.434 106.208 300.156 107.502 299.6 108.65C299.053 109.79 298.264 110.678 297.234 111.316C296.214 111.954 295.038 112.273 293.707 112.273C291.702 112.273 290.075 111.576 288.826 110.182C287.587 108.787 286.967 106.941 286.967 104.645V104.467ZM289.51 104.768C289.51 106.408 289.888 107.725 290.645 108.719C291.41 109.712 292.431 110.209 293.707 110.209C294.992 110.209 296.013 109.708 296.77 108.705C297.526 107.693 297.904 106.281 297.904 104.467C297.904 102.844 297.517 101.532 296.742 100.529C295.977 99.5176 294.956 99.0117 293.68 99.0117C292.431 99.0117 291.424 99.5085 290.658 100.502C289.893 101.495 289.51 102.917 289.51 104.768Z" fill="#575757"/>
<rect x="343" y="86" width="70" height="30" rx="15" fill="#878787"/>
<circle cx="362" cy="101" r="13" fill="#61BEB5"/>
<path d="M108.936 162.207V170H106.311V150.094H113.652C115.831 150.094 117.535 150.65 118.766 151.762C120.005 152.874 120.625 154.346 120.625 156.178C120.625 158.11 120.019 159.6 118.807 160.648C117.604 161.688 115.876 162.207 113.625 162.207H108.936ZM108.936 160.061H113.652C115.056 160.061 116.132 159.732 116.879 159.076C117.626 158.411 118 157.454 118 156.205C118 155.02 117.626 154.072 116.879 153.361C116.132 152.65 115.106 152.281 113.803 152.254H108.936V160.061ZM129.525 170.273C127.52 170.273 125.889 169.617 124.631 168.305C123.373 166.983 122.744 165.219 122.744 163.014V162.549C122.744 161.081 123.022 159.773 123.578 158.625C124.143 157.467 124.927 156.565 125.93 155.918C126.941 155.262 128.035 154.934 129.211 154.934C131.134 154.934 132.629 155.567 133.695 156.834C134.762 158.101 135.295 159.915 135.295 162.275V163.328H125.273C125.31 164.786 125.734 165.967 126.545 166.869C127.365 167.762 128.404 168.209 129.662 168.209C130.555 168.209 131.312 168.027 131.932 167.662C132.551 167.298 133.094 166.814 133.559 166.213L135.104 167.416C133.864 169.321 132.005 170.273 129.525 170.273ZM129.211 157.012C128.19 157.012 127.333 157.385 126.641 158.133C125.948 158.871 125.52 159.91 125.355 161.25H132.766V161.059C132.693 159.773 132.346 158.78 131.727 158.078C131.107 157.367 130.268 157.012 129.211 157.012ZM145.385 157.477C145.002 157.413 144.587 157.381 144.141 157.381C142.482 157.381 141.356 158.087 140.764 159.5V170H138.234V155.207H140.695L140.736 156.916C141.566 155.594 142.742 154.934 144.264 154.934C144.756 154.934 145.13 154.997 145.385 155.125V157.477ZM156.336 166.076C156.336 165.393 156.076 164.864 155.557 164.49C155.046 164.107 154.148 163.779 152.863 163.506C151.587 163.232 150.571 162.904 149.814 162.521C149.067 162.139 148.511 161.683 148.146 161.154C147.791 160.626 147.613 159.997 147.613 159.268C147.613 158.055 148.124 157.03 149.145 156.191C150.174 155.353 151.487 154.934 153.082 154.934C154.759 154.934 156.117 155.367 157.156 156.232C158.204 157.098 158.729 158.206 158.729 159.555H156.186C156.186 158.862 155.889 158.265 155.297 157.764C154.714 157.262 153.975 157.012 153.082 157.012C152.161 157.012 151.441 157.212 150.922 157.613C150.402 158.014 150.143 158.538 150.143 159.186C150.143 159.796 150.384 160.257 150.867 160.566C151.35 160.876 152.221 161.173 153.479 161.455C154.745 161.738 155.771 162.075 156.555 162.467C157.339 162.859 157.917 163.333 158.291 163.889C158.674 164.436 158.865 165.105 158.865 165.898C158.865 167.22 158.337 168.282 157.279 169.084C156.222 169.877 154.85 170.273 153.164 170.273C151.979 170.273 150.931 170.064 150.02 169.645C149.108 169.225 148.393 168.642 147.873 167.895C147.363 167.138 147.107 166.322 147.107 165.447H149.637C149.682 166.295 150.02 166.969 150.648 167.471C151.286 167.963 152.125 168.209 153.164 168.209C154.121 168.209 154.887 168.018 155.461 167.635C156.044 167.243 156.336 166.723 156.336 166.076ZM161.49 162.467C161.49 161.018 161.773 159.714 162.338 158.557C162.912 157.399 163.705 156.506 164.717 155.877C165.738 155.248 166.9 154.934 168.203 154.934C170.217 154.934 171.844 155.631 173.084 157.025C174.333 158.42 174.957 160.275 174.957 162.59V162.768C174.957 164.208 174.679 165.502 174.123 166.65C173.576 167.79 172.788 168.678 171.758 169.316C170.737 169.954 169.561 170.273 168.23 170.273C166.225 170.273 164.598 169.576 163.35 168.182C162.11 166.787 161.49 164.941 161.49 162.645V162.467ZM164.033 162.768C164.033 164.408 164.411 165.725 165.168 166.719C165.934 167.712 166.954 168.209 168.23 168.209C169.516 168.209 170.536 167.708 171.293 166.705C172.049 165.693 172.428 164.281 172.428 162.467C172.428 160.844 172.04 159.532 171.266 158.529C170.5 157.518 169.479 157.012 168.203 157.012C166.954 157.012 165.947 157.508 165.182 158.502C164.416 159.495 164.033 160.917 164.033 162.768ZM180.521 155.207L180.604 157.066C181.734 155.645 183.21 154.934 185.033 154.934C188.16 154.934 189.736 156.697 189.764 160.225V170H187.234V160.211C187.225 159.145 186.979 158.356 186.496 157.846C186.022 157.335 185.279 157.08 184.268 157.08C183.447 157.08 182.727 157.299 182.107 157.736C181.488 158.174 181.005 158.748 180.658 159.459V170H178.129V155.207H180.521ZM202.711 170C202.565 169.708 202.447 169.189 202.355 168.441C201.18 169.663 199.776 170.273 198.145 170.273C196.686 170.273 195.488 169.863 194.549 169.043C193.619 168.214 193.154 167.165 193.154 165.898C193.154 164.358 193.738 163.164 194.904 162.316C196.08 161.46 197.73 161.031 199.854 161.031H202.314V159.869C202.314 158.985 202.05 158.283 201.521 157.764C200.993 157.235 200.214 156.971 199.184 156.971C198.281 156.971 197.525 157.199 196.914 157.654C196.303 158.11 195.998 158.661 195.998 159.309H193.455C193.455 158.57 193.715 157.859 194.234 157.176C194.763 156.483 195.474 155.936 196.367 155.535C197.27 155.134 198.258 154.934 199.334 154.934C201.038 154.934 202.374 155.362 203.34 156.219C204.306 157.066 204.807 158.238 204.844 159.732V166.541C204.844 167.899 205.017 168.979 205.363 169.781V170H202.711ZM198.514 168.072C199.307 168.072 200.059 167.867 200.77 167.457C201.48 167.047 201.995 166.514 202.314 165.857V162.822H200.332C197.233 162.822 195.684 163.729 195.684 165.543C195.684 166.336 195.948 166.956 196.477 167.402C197.005 167.849 197.684 168.072 198.514 168.072ZM211.557 170H209.027V149H211.557V170ZM218.365 170H215.836V155.207H218.365V170ZM215.631 151.283C215.631 150.873 215.754 150.527 216 150.244C216.255 149.962 216.629 149.82 217.121 149.82C217.613 149.82 217.987 149.962 218.242 150.244C218.497 150.527 218.625 150.873 218.625 151.283C218.625 151.693 218.497 152.035 218.242 152.309C217.987 152.582 217.613 152.719 217.121 152.719C216.629 152.719 216.255 152.582 216 152.309C215.754 152.035 215.631 151.693 215.631 151.283ZM224.805 167.936H233.459V170H221.715V168.141L229.877 157.299H221.838V155.207H233.049V156.998L224.805 167.936ZM245.449 170C245.303 169.708 245.185 169.189 245.094 168.441C243.918 169.663 242.514 170.273 240.883 170.273C239.424 170.273 238.226 169.863 237.287 169.043C236.357 168.214 235.893 167.165 235.893 165.898C235.893 164.358 236.476 163.164 237.643 162.316C238.818 161.46 240.468 161.031 242.592 161.031H245.053V159.869C245.053 158.985 244.788 158.283 244.26 157.764C243.731 157.235 242.952 156.971 241.922 156.971C241.02 156.971 240.263 157.199 239.652 157.654C239.042 158.11 238.736 158.661 238.736 159.309H236.193C236.193 158.57 236.453 157.859 236.973 157.176C237.501 156.483 238.212 155.936 239.105 155.535C240.008 155.134 240.997 154.934 242.072 154.934C243.777 154.934 245.112 155.362 246.078 156.219C247.044 157.066 247.546 158.238 247.582 159.732V166.541C247.582 167.899 247.755 168.979 248.102 169.781V170H245.449ZM241.252 168.072C242.045 168.072 242.797 167.867 243.508 167.457C244.219 167.047 244.734 166.514 245.053 165.857V162.822H243.07C239.971 162.822 238.422 163.729 238.422 165.543C238.422 166.336 238.686 166.956 239.215 167.402C239.743 167.849 240.423 168.072 241.252 168.072ZM250.932 162.48C250.932 160.211 251.469 158.388 252.545 157.012C253.62 155.626 255.029 154.934 256.77 154.934C258.501 154.934 259.873 155.526 260.885 156.711V149H263.414V170H261.09L260.967 168.414C259.955 169.654 258.547 170.273 256.742 170.273C255.029 170.273 253.63 169.572 252.545 168.168C251.469 166.764 250.932 164.932 250.932 162.672V162.48ZM253.461 162.768C253.461 164.445 253.807 165.757 254.5 166.705C255.193 167.653 256.15 168.127 257.371 168.127C258.975 168.127 260.146 167.407 260.885 165.967V159.172C260.128 157.777 258.966 157.08 257.398 157.08C256.159 157.08 255.193 157.559 254.5 158.516C253.807 159.473 253.461 160.89 253.461 162.768ZM266.682 162.467C266.682 161.018 266.964 159.714 267.529 158.557C268.104 157.399 268.896 156.506 269.908 155.877C270.929 155.248 272.091 154.934 273.395 154.934C275.409 154.934 277.036 155.631 278.275 157.025C279.524 158.42 280.148 160.275 280.148 162.59V162.768C280.148 164.208 279.87 165.502 279.314 166.65C278.768 167.79 277.979 168.678 276.949 169.316C275.928 169.954 274.753 170.273 273.422 170.273C271.417 170.273 269.79 169.576 268.541 168.182C267.301 166.787 266.682 164.941 266.682 162.645V162.467ZM269.225 162.768C269.225 164.408 269.603 165.725 270.359 166.719C271.125 167.712 272.146 168.209 273.422 168.209C274.707 168.209 275.728 167.708 276.484 166.705C277.241 165.693 277.619 164.281 277.619 162.467C277.619 160.844 277.232 159.532 276.457 158.529C275.691 157.518 274.671 157.012 273.395 157.012C272.146 157.012 271.139 157.508 270.373 158.502C269.607 159.495 269.225 160.917 269.225 162.768Z" fill="#575757"/>
<rect x="360" y="144" width="35" height="35" fill="#D02AB6"/>
<ellipse cx="56.5" cy="106" rx="17.5" ry="18" fill="#5FE3D7"/>
<ellipse cx="56.5" cy="161" rx="17.5" ry="18" fill="#C4C4C4"/>
<circle cx="56.5" cy="106.5" r="12.5" fill="#C4C4C4"/>
</svg>
